<?xml version="1.0" encoding="utf-8"?>
<!-- Generator: Adobe Illustrator 24.2.1, SVG Export Plug-In . SVG Version: 6.00 Build 0)  -->
<svg version="1.1" id="Layer_1" xmlns="http://www.w3.org/2000/svg" xmlns:xlink="http://www.w3.org/1999/xlink" x="0px" y="0px"
	 viewBox="0 0 576 576" style="enable-background:new 0 0 576 576;" xml:space="preserve">
<g>
	<g>
		<circle cx="337.5" cy="202" r="28"/>
	</g>
	<g>
		<circle cx="238.5" cy="202" r="28"/>
	</g>
	<g>
		<path d="M288,0C128.94,0,0,128.94,0,288s128.94,288,288,288s288-128.94,288-288S447.06,0,288,0z M167,175.46
			c0-8.47,5.4-15.4,12-15.4h11V125.4c0-8.47,5.4-15.4,12-15.4h75.5V95.17C271.23,91.54,267,84.77,267,77c0-11.6,9.4-21,21-21
			s21,9.4,21,21c0,7.77-4.23,14.54-10.5,18.17V110H374c6.6,0,12,6.93,12,15.4v34.65h11c6.6,0,12,6.93,12,15.4v44.92
			c0,8.47-5.4,15.4-12,15.4h-11v21.82c0,8.47-5.4,15.4-12,15.4H202c-6.6,0-12-6.93-12-15.4v-21.82h-11c-6.6,0-12-6.93-12-15.4
			V175.46z M288,520c-68.12,0-129.74-27.81-174.14-72.68C134.08,370.03,204.37,313,288,313s153.92,57.03,174.14,134.32
			C417.74,492.19,356.12,520,288,520z"/>
	</g>
</g>
</svg>
