<?xml version="1.0" encoding="utf-8"?>
<!-- Generator: Adobe Illustrator 24.2.1, SVG Export Plug-In . SVG Version: 6.00 Build 0)  -->
<svg version="1.1" id="Layer_1" xmlns="http://www.w3.org/2000/svg" xmlns:xlink="http://www.w3.org/1999/xlink" x="0px" y="0px"
	 viewBox="0 0 576 576" style="enable-background:new 0 0 576 576;" xml:space="preserve">
<g>
	<path d="M288,0C128.94,0,0,128.94,0,288s128.94,288,288,288s288-128.94,288-288S447.06,0,288,0z M288,104c43.63,0,79,35.37,79,79
		s-35.37,79-79,79s-79-35.37-79-79S244.37,104,288,104z M288,520c-68.12,0-129.74-27.81-174.14-72.68
		C134.08,370.03,204.37,313,288,313s153.92,57.03,174.14,134.32C417.74,492.19,356.12,520,288,520z"/>
</g>
</svg>
